<?xml version="1.0" encoding="utf-8"?>
<!-- Generator: Adobe Illustrator 15.1.0, SVG Export Plug-In . SVG Version: 6.00 Build 0)  -->
<!DOCTYPE svg PUBLIC "-//W3C//DTD SVG 1.1//EN" "http://www.w3.org/Graphics/SVG/1.1/DTD/svg11.dtd">
<svg version="1.1" id="Layer_1" xmlns="http://www.w3.org/2000/svg" xmlns:xlink="http://www.w3.org/1999/xlink" x="0px" y="0px"
	 width="17.75px" height="33.375px" viewBox="0 0 17.75 33.375" enable-background="new 0 0 17.75 33.375" xml:space="preserve">
<path fill="#A19C94" d="M12.706,29.688c-0.866,0.429-1.718-0.022-1.831-0.077c-5.494-1.939-8.04-5.028-8.04-8.611
	C2.688,11.108,10.07,6.656,10.774,6.125s1.903-0.656,1.726,0s-0.578,6.43-0.403,6.979c0.252,0.789,0.695,1.688,1.567,1.075
	c0.526-0.37-0.039-1.971-0.279-3.147c0.04-3.214,1.207-6.709,2.915-8.844l-0.634-0.75C13.451,2.669,5.334,2.791,3.167,2.666
	C2.34,2.618,1.709,3.23,1.709,3.875c0,0.644,1.25,1.042,2.541,0.667c1.481,0.027,5.572-0.479,6.166-0.479
	c0.366,0,0.5,0.812-0.062,1.148C9.441,5.755,1.37,10.468,1.21,21.083c-0.084,5.583,3.389,7.374,9.251,9.435
	c0.038,0.021,3.753,2.037,4.487,1.804c0.733-0.233,1.126-1.063,0.874-1.853C15.571,29.68,12.855,29.531,12.706,29.688z"/>
</svg>
